<svg xmlns="http://www.w3.org/2000/svg" version="1.1" xmlns:xlink="http://www.w3.org/1999/xlink" xmlns:svgjs="http://svgjs.dev/svgjs" width="1440" height="560" preserveAspectRatio="none" viewBox="0 0 1440 560"><g mask="url(&quot;#SvgjsMask1000&quot;)" fill="none"><rect width="1440" height="560" x="0" y="0" fill="#0e2a47"></rect><path d="M720 697.11C829.28 695.82 927.03 641.42 1007.47 567.47 1092.2 489.58 1165.06 394.75 1173.73 280 1183.01 157.29 1141.91 32.11 1054.46-54.46 967.38-140.65 842.5-170.33 720-169.14 598.82-167.95 473.67-137.52 392-48 313.09 38.53 304.08 163.04 310.4 280 316.32 389.38 348.89 496.17 425.66 574.34 503.08 653.18 609.5 698.4 720 697.11" fill="#1c538e"></path><path d="M720 549.9C790.71 549.06 853.96 513.86 906.01 466.01 960.83 415.61 1007.98 354.25 1013.59 280 1019.6 200.6 993 119.6 936.41 63.59 880.07 7.82 799.27-11.39 720-10.62 641.59-9.85 560.61 9.84 507.77 67.77 456.7 123.76 450.87 204.32 454.97 280 458.79 350.77 479.87 419.88 529.55 470.45 579.64 521.47 648.5 550.73 720 549.9" fill="#2774c6"></path><path d="M720 402.68C752.14 402.3 780.89 386.3 804.55 364.55 829.47 341.64 850.9 313.75 853.45 280 856.18 243.91 844.09 207.09 818.37 181.63 792.76 156.28 756.03 147.55 720 147.9 684.36 148.25 647.55 157.2 623.53 183.53 600.32 208.98 597.67 245.6 599.53 280 601.27 312.17 610.85 343.58 633.43 366.57 656.2 389.76 687.5 403.06 720 402.68" fill="#488fdb"></path></g><defs><mask id="SvgjsMask1000"><rect width="1440" height="560" fill="#ffffff"></rect></mask></defs></svg>